<?xml version="1.0" encoding="UTF-8"?>
<svg xmlns="http://www.w3.org/2000/svg" xmlns:xlink="http://www.w3.org/1999/xlink" width="192pt" height="192pt" viewBox="0 0 192 192" version="1.1">
<defs>
<radialGradient id="radial0" gradientUnits="userSpaceOnUse" cx="34.739" cy="55.447" fx="34.739" fy="55.447" r="137.247" gradientTransform="matrix(1.4151,0.4977,-0.37185,1.05735,23.5725,7.2525)">
<stop offset="0.087" style="stop-color:rgb(81.176471%,84.705882%,86.27451%);stop-opacity:0;"/>
<stop offset="0.959" style="stop-color:rgb(40.784314%,60%,67.843137%);stop-opacity:1;"/>
</radialGradient>
</defs>
<g id="surface1">
<path style=" stroke:none;fill-rule:nonzero;fill:rgb(79.215686%,84.705882%,86.666667%);fill-opacity:1;" d="M 154.859375 64.890625 C 154.996094 62.191406 152.398438 49.648438 141.914062 44.609375 C 139.125 43.261719 131.878906 42.539062 133.53125 50.101562 C 135.074219 57.136719 135.898438 67.949219 135.089844 74.863281 C 134.28125 81.691406 131.160156 89.746094 123.074219 93.148438 C 116.054688 96.105469 108.046875 94.964844 102.179688 89.953125 C 94.378906 83.28125 91.964844 72.75 91.875 62.878906 C 91.621094 36.253906 86.308594 22.453125 64.890625 17.699219 C 58.589844 16.304688 50.835938 16.5 44.398438 18.480469 C 36.511719 20.804688 25.664062 25.214844 15.691406 42.511719 C 5.671875 59.863281 3.929688 83.175781 7.109375 102.511719 C 17.851562 167.804688 70.140625 183.988281 108.121094 172.46875 C 150.285156 159.691406 162.058594 124.066406 165.675781 102.734375 C 167.65625 91.09375 169.273438 80.085938 176.429688 70.171875 C 180.839844 64.066406 189.898438 56.773438 183.945312 52.875 C 172.246094 45.226562 157.859375 58.261719 154.859375 64.890625 Z M 154.859375 64.890625 "/>
<path style=" stroke:none;fill-rule:nonzero;fill:rgb(12.941176%,12.941176%,12.941176%);fill-opacity:1;" d="M 48.136719 33.988281 C 48.136719 36.714844 45.925781 38.925781 43.199219 38.925781 C 40.472656 38.925781 38.265625 36.714844 38.265625 33.988281 C 38.265625 31.265625 40.472656 29.054688 43.199219 29.054688 C 45.925781 29.054688 48.136719 31.265625 48.136719 33.988281 Z M 48.136719 33.988281 "/>
<path style=" stroke:none;fill-rule:nonzero;fill:rgb(12.941176%,12.941176%,12.941176%);fill-opacity:1;" d="M 80.054688 41.191406 C 80.054688 43.914062 77.84375 46.125 75.121094 46.125 C 72.394531 46.125 70.183594 43.914062 70.183594 41.191406 C 70.183594 38.464844 72.394531 36.253906 75.121094 36.253906 C 77.84375 36.253906 80.054688 38.464844 80.054688 41.191406 Z M 80.054688 41.191406 "/>
<path style=" stroke:none;fill-rule:nonzero;fill:rgb(12.941176%,12.941176%,12.941176%);fill-opacity:1;" d="M 63 47.535156 C 62.609375 49.261719 58.5 50.699219 56.324219 50.203125 C 54.148438 49.710938 51.046875 46.648438 51.433594 44.925781 C 51.824219 43.199219 54.660156 42.703125 57.839844 43.425781 C 61.035156 44.144531 63.390625 45.796875 63 47.535156 Z M 63 47.535156 "/>
<path style=" stroke:none;fill-rule:nonzero;fill:rgb(12.941176%,12.941176%,12.941176%);fill-opacity:1;" d="M 67.921875 58.5 C 67.453125 58.710938 65.011719 60.03125 61.875 58.90625 C 58.574219 57.71875 58.109375 55.890625 57.613281 54.585938 C 56.925781 52.769531 58.183594 47.96875 58.183594 47.96875 L 56.910156 47.625 L 55.605469 47.386719 C 55.605469 47.386719 54.675781 52.261719 53.28125 53.609375 C 52.273438 54.570312 51.074219 56.023438 47.578125 55.695312 C 44.265625 55.363281 42.613281 53.128906 42.285156 52.738281 C 41.953125 52.351562 40.828125 52.183594 41.21875 53.519531 C 41.625 54.929688 43.035156 57.359375 47.324219 58.335938 C 51.03125 59.175781 54.089844 57.285156 54.855469 56.746094 C 55.320312 57.554688 57.269531 60.570312 60.976562 61.410156 C 65.265625 62.386719 67.589844 60.78125 68.550781 59.683594 C 69.464844 58.621094 68.386719 58.273438 67.921875 58.5 Z M 67.921875 58.5 "/>
<path style=" stroke:none;fill-rule:nonzero;fill:rgb(12.941176%,12.941176%,12.941176%);fill-opacity:1;" d="M 22.726562 44.566406 C 23.746094 43.171875 25.304688 42.179688 26.96875 41.609375 C 28.636719 41.023438 30.421875 40.828125 32.160156 40.875 C 33.898438 40.933594 35.625 41.234375 37.273438 41.761719 C 38.910156 42.285156 40.546875 43.003906 41.820312 44.175781 C 40.230469 43.546875 38.609375 43.199219 36.988281 42.898438 C 35.371094 42.613281 33.734375 42.40625 32.101562 42.375 C 28.859375 42.269531 25.621094 42.703125 22.726562 44.566406 Z M 22.726562 44.566406 "/>
<path style=" stroke:none;fill-rule:nonzero;fill:rgb(12.941176%,12.941176%,12.941176%);fill-opacity:1;" d="M 20.070312 54.089844 C 21.886719 50.59375 25.171875 47.773438 29.039062 46.484375 C 30.976562 45.855469 33.046875 45.601562 35.054688 45.824219 C 37.066406 46.019531 39 46.695312 40.695312 47.699219 C 36.871094 46.753906 33.046875 46.695312 29.503906 47.894531 C 25.964844 49.066406 22.84375 51.316406 20.070312 54.089844 Z M 20.070312 54.089844 "/>
<path style=" stroke:none;fill-rule:nonzero;fill:rgb(12.941176%,12.941176%,12.941176%);fill-opacity:1;" d="M 25.304688 58.648438 C 25.621094 57.210938 26.324219 55.859375 27.210938 54.644531 C 28.109375 53.429688 29.25 52.410156 30.554688 51.601562 C 31.199219 51.195312 31.921875 50.910156 32.609375 50.609375 C 33.34375 50.414062 34.066406 50.160156 34.828125 50.113281 C 36.328125 49.890625 37.84375 50.101562 39.253906 50.503906 C 37.785156 50.714844 36.390625 50.851562 35.070312 51.253906 C 33.734375 51.613281 32.488281 52.15625 31.335938 52.875 C 28.980469 54.285156 27.058594 56.308594 25.304688 58.648438 Z M 25.304688 58.648438 "/>
<path style=" stroke:none;fill-rule:nonzero;fill:rgb(12.941176%,12.941176%,12.941176%);fill-opacity:1;" d="M 89.085938 59.519531 C 87.269531 56.59375 84.523438 54.824219 81.554688 53.503906 C 80.070312 52.828125 78.511719 52.335938 76.921875 51.886719 C 75.316406 51.464844 73.710938 51.089844 72.015625 50.96875 C 73.664062 50.460938 75.449219 50.503906 77.160156 50.730469 C 78.871094 50.953125 80.566406 51.433594 82.171875 52.125 C 83.761719 52.84375 85.289062 53.773438 86.535156 55.019531 C 87.765625 56.25 88.753906 57.824219 89.085938 59.519531 Z M 89.085938 59.519531 "/>
<path style=" stroke:none;fill-rule:nonzero;fill:rgb(12.941176%,12.941176%,12.941176%);fill-opacity:1;" d="M 87.121094 69.601562 C 86.023438 65.835938 84.375 62.371094 81.808594 59.640625 C 79.289062 56.878906 75.898438 55.09375 72.089844 54.089844 C 74.054688 54.015625 76.078125 54.359375 77.941406 55.15625 C 79.816406 55.921875 81.511719 57.136719 82.90625 58.621094 C 85.679688 61.621094 87.210938 65.65625 87.121094 69.601562 Z M 87.121094 69.601562 "/>
<path style=" stroke:none;fill-rule:nonzero;fill:rgb(12.941176%,12.941176%,12.941176%);fill-opacity:1;" d="M 79.980469 70.816406 C 79.394531 67.949219 78.523438 65.296875 76.996094 63.03125 C 76.253906 61.878906 75.347656 60.84375 74.308594 59.953125 C 73.289062 59.011719 72.089844 58.289062 70.84375 57.480469 C 72.285156 57.703125 73.753906 58.171875 75 59.023438 C 75.675781 59.386719 76.214844 59.941406 76.800781 60.433594 C 77.308594 61.003906 77.835938 61.558594 78.238281 62.21875 C 79.066406 63.496094 79.664062 64.921875 79.949219 66.40625 C 80.25 67.84375 80.308594 69.359375 79.980469 70.816406 Z M 79.980469 70.816406 "/>
<path style=" stroke:none;fill-rule:nonzero;fill:rgb(65.882353%,72.941176%,75.686275%);fill-opacity:1;" d="M 48.375 26.023438 C 48.136719 26.761719 48.179688 27.613281 48.613281 28.246094 C 49.15625 29.039062 50.21875 29.371094 51.164062 29.234375 C 53.324219 28.933594 56.640625 26.085938 54.449219 23.941406 C 52.441406 21.988281 49.140625 23.683594 48.375 26.023438 Z M 48.375 26.023438 "/>
<path style=" stroke:none;fill-rule:nonzero;fill:rgb(65.882353%,72.941176%,75.686275%);fill-opacity:1;" d="M 73.859375 31.769531 C 73.753906 32.535156 73.351562 33.285156 72.691406 33.675781 C 71.863281 34.15625 70.769531 34.003906 69.960938 33.480469 C 68.128906 32.296875 66.359375 28.273438 69.269531 27.285156 C 71.925781 26.386719 74.175781 29.324219 73.859375 31.769531 Z M 73.859375 31.769531 "/>
<path style=" stroke:none;fill-rule:nonzero;fill:url(#radial0);" d="M 148.003906 111.210938 C 141.148438 116.398438 117.914062 129.628906 91.46875 102.074219 C 81.253906 91.425781 72.058594 84.765625 55.003906 88.621094 C 34.410156 93.285156 30 105.511719 26.460938 115.363281 C 22.363281 126.808594 22.363281 133.589844 24.105469 141.644531 C 41.234375 174.226562 80.203125 180.945312 108.121094 172.484375 C 150.285156 159.703125 162.058594 124.078125 165.675781 102.75 C 166.890625 95.578125 167.984375 88.636719 170.308594 82.050781 C 170.503906 81.136719 170.773438 80.25 171.121094 79.394531 C 170.414062 80.160156 161.386719 101.070312 148.003906 111.210938 Z M 148.003906 111.210938 "/>
<path style=" stroke:none;fill-rule:nonzero;fill:rgb(47.058824%,56.470588%,61.176471%);fill-opacity:1;" d="M 166.726562 53.296875 C 161.910156 55.828125 157.949219 59.851562 155.878906 63.058594 C 148.753906 40.320312 137.339844 43.484375 136.050781 43.933594 C 134.59375 44.460938 133.726562 45.433594 133.410156 46.828125 C 134.910156 45.421875 139.875 43.800781 145.636719 50.070312 C 148.636719 53.699219 150.554688 60.015625 150.886719 64.558594 C 151.800781 76.664062 147.898438 84.554688 145.710938 87.960938 C 145.289062 88.605469 146.28125 89.535156 147.046875 88.964844 C 149.339844 87.253906 151.921875 83.28125 153.914062 77.265625 C 156.074219 70.769531 158.941406 60.703125 170.128906 55.53125 C 175.648438 52.980469 180.253906 52.90625 183.015625 53.820312 C 185.113281 54.523438 185.910156 56.085938 185.910156 56.085938 C 185.910156 54.464844 184.996094 52.785156 183.433594 51.886719 C 182.460938 51.316406 176.578125 48.074219 166.726562 53.296875 Z M 166.726562 53.296875 "/>
<path style=" stroke:none;fill-rule:nonzero;fill:rgb(79.215686%,84.705882%,86.666667%);fill-opacity:1;" d="M 87.121094 84.328125 C 91.484375 102.089844 85.351562 107.296875 85.230469 124.019531 C 85.125 137.308594 89.398438 150.765625 99.496094 147.703125 C 107.039062 145.425781 118.230469 116.144531 112.738281 101.386719 "/>
<path style=" stroke:none;fill-rule:nonzero;fill:rgb(44.705882%,55.686275%,61.176471%);fill-opacity:1;" d="M 89.398438 87.105469 C 92.296875 101.96875 86.21875 114.253906 87.585938 129.765625 C 88.648438 142.816406 94.109375 145.84375 96.523438 145.964844 C 99.136719 146.308594 101.175781 144.164062 102.734375 141.824219 C 104.519531 139.15625 106.710938 135.449219 108.601562 130.875 C 112.996094 119.851562 113.625 106.875 112.933594 102.269531 C 112.605469 100.84375 113.773438 100.710938 114.195312 102.015625 C 114.628906 103.363281 115.453125 107.191406 114.914062 116.699219 C 114.539062 121.90625 113.488281 127.066406 111.871094 132.046875 C 111.074219 134.535156 108.660156 141.238281 104.683594 146.339844 C 103.769531 147.433594 101.761719 150.71875 96.375 150.316406 C 94.753906 150.269531 85.003906 148.859375 83.386719 130.183594 C 83.191406 127.53125 82.800781 121.230469 84.253906 114.421875 C 85.15625 109.230469 86.789062 104.398438 87.433594 99.464844 C 88.066406 95.445312 87.613281 91.351562 87.480469 87.179688 C 87.421875 85.621094 89.023438 85.199219 89.398438 87.105469 Z M 89.398438 87.105469 "/>
<path style=" stroke:none;fill-rule:nonzero;fill:rgb(79.215686%,84.705882%,86.666667%);fill-opacity:1;" d="M 27.464844 97.90625 C 31.800781 114.269531 63.03125 119.28125 70.605469 146.101562 C 72.914062 154.289062 67.050781 157.320312 61.769531 157.320312 C 32.96875 157.320312 18.328125 133.621094 18.328125 133.621094 "/>
<path style=" stroke:none;fill-rule:nonzero;fill:rgb(44.705882%,55.686275%,61.176471%);fill-opacity:1;" d="M 28.753906 100.621094 C 31.425781 104.296875 34.738281 107.414062 38.429688 109.996094 C 42.976562 113.175781 47.835938 116.011719 52.453125 119.339844 C 57.121094 122.609375 61.53125 126.433594 65.21875 131.023438 C 73.035156 142.410156 73.648438 149.519531 73.019531 152.039062 C 72.574219 153.851562 71.574219 155.480469 70.15625 156.691406 C 67.664062 158.671875 63.765625 159.601562 60.78125 159.40625 C 54.945312 159.210938 49.109375 158.039062 43.738281 155.835938 C 38.339844 153.675781 33.40625 150.511719 29.101562 146.746094 C 26.101562 144.058594 23.835938 141.644531 21.691406 138.269531 C 20.535156 136.441406 19.875 134.296875 21.496094 136.125 C 31.484375 147.496094 39.824219 150.824219 44.953125 152.566406 C 50.101562 154.246094 55.453125 155.25 60.855469 155.175781 C 61.558594 155.175781 65.535156 154.949219 67.304688 153.390625 C 68.789062 152.113281 69.195312 150.089844 68.714844 147.734375 C 67.246094 141.523438 62.878906 131.160156 49.230469 121.273438 C 43.621094 117.226562 30 108 27.464844 101.011719 C 26.878906 99.390625 28.035156 99.613281 28.753906 100.621094 Z M 28.753906 100.621094 "/>
</g>
</svg>
