<?xml version="1.0" encoding="UTF-8"?>
<svg xmlns="http://www.w3.org/2000/svg" xmlns:xlink="http://www.w3.org/1999/xlink" width="512px" height="512px" viewBox="0 0 512 512" version="1.1">
<defs>
<radialGradient id="radial0" gradientUnits="userSpaceOnUse" cx="34.739" cy="55.447" fx="34.739" fy="55.447" r="137.247" gradientTransform="matrix(3.7736,1.3272,-0.9916,2.8196,62.86,19.34)">
<stop offset="0.087" style="stop-color:rgb(81.176471%,84.705882%,86.27451%);stop-opacity:0;"/>
<stop offset="0.959" style="stop-color:rgb(40.784314%,60%,67.843137%);stop-opacity:1;"/>
</radialGradient>
</defs>
<g id="surface1">
<path style=" stroke:none;fill-rule:nonzero;fill:rgb(79.215686%,84.705882%,86.666667%);fill-opacity:1;" d="M 412.960938 173.039062 C 413.320312 165.839844 406.398438 132.398438 378.441406 118.960938 C 371 115.359375 351.679688 113.441406 356.078125 133.601562 C 360.199219 152.359375 362.398438 181.199219 360.238281 199.640625 C 358.078125 217.839844 349.761719 239.320312 328.199219 248.398438 C 309.480469 256.28125 288.121094 253.238281 272.480469 239.878906 C 251.679688 222.078125 245.238281 194 245 167.679688 C 244.320312 96.679688 230.160156 59.878906 173.039062 47.199219 C 156.238281 43.480469 135.558594 44 118.398438 49.28125 C 97.359375 55.480469 68.441406 67.238281 41.839844 113.359375 C 15.121094 159.640625 10.480469 221.800781 18.960938 273.359375 C 47.601562 447.480469 187.039062 490.640625 288.320312 459.921875 C 400.761719 425.839844 432.160156 330.839844 441.800781 273.960938 C 447.078125 242.921875 451.398438 213.558594 470.480469 187.121094 C 482.238281 170.839844 506.398438 151.398438 490.519531 141 C 459.320312 120.601562 420.960938 155.359375 412.960938 173.039062 Z M 412.960938 173.039062 "/>
<path style=" stroke:none;fill-rule:nonzero;fill:rgb(12.941176%,12.941176%,12.941176%);fill-opacity:1;" d="M 128.359375 90.640625 C 128.359375 97.90625 122.46875 103.800781 115.199219 103.800781 C 107.933594 103.800781 102.039062 97.90625 102.039062 90.640625 C 102.039062 83.371094 107.933594 77.480469 115.199219 77.480469 C 122.46875 77.480469 128.359375 83.371094 128.359375 90.640625 Z M 128.359375 90.640625 "/>
<path style=" stroke:none;fill-rule:nonzero;fill:rgb(12.941176%,12.941176%,12.941176%);fill-opacity:1;" d="M 213.480469 109.839844 C 213.480469 117.109375 207.589844 123 200.320312 123 C 193.050781 123 187.160156 117.109375 187.160156 109.839844 C 187.160156 102.570312 193.050781 96.679688 200.320312 96.679688 C 207.589844 96.679688 213.480469 102.570312 213.480469 109.839844 Z M 213.480469 109.839844 "/>
<path style=" stroke:none;fill-rule:nonzero;fill:rgb(12.941176%,12.941176%,12.941176%);fill-opacity:1;" d="M 168 126.761719 C 166.960938 131.359375 156 135.199219 150.199219 133.878906 C 144.398438 132.558594 136.121094 124.398438 137.160156 119.800781 C 138.199219 115.199219 145.761719 113.878906 154.238281 115.800781 C 162.761719 117.71875 169.039062 122.121094 168 126.761719 Z M 168 126.761719 "/>
<path style=" stroke:none;fill-rule:nonzero;fill:rgb(12.941176%,12.941176%,12.941176%);fill-opacity:1;" d="M 181.121094 156 C 179.878906 156.558594 173.359375 160.078125 165 157.078125 C 156.199219 153.921875 154.960938 149.039062 153.640625 145.558594 C 151.800781 140.71875 155.160156 127.921875 155.160156 127.921875 L 151.761719 127 L 148.28125 126.359375 C 148.28125 126.359375 145.800781 139.359375 142.078125 142.960938 C 139.398438 145.519531 136.199219 149.398438 126.878906 148.519531 C 118.039062 147.640625 113.640625 141.679688 112.761719 140.640625 C 111.878906 139.601562 108.878906 139.160156 109.921875 142.71875 C 111 146.480469 114.761719 152.960938 126.199219 155.558594 C 136.078125 157.800781 144.238281 152.761719 146.28125 151.320312 C 147.519531 153.480469 152.71875 161.519531 162.601562 163.761719 C 174.039062 166.359375 180.238281 162.078125 182.800781 159.160156 C 185.238281 156.320312 182.359375 155.398438 181.121094 156 Z M 181.121094 156 "/>
<path style=" stroke:none;fill-rule:nonzero;fill:rgb(12.941176%,12.941176%,12.941176%);fill-opacity:1;" d="M 60.601562 118.839844 C 63.320312 115.121094 67.480469 112.480469 71.921875 110.960938 C 76.359375 109.398438 81.121094 108.878906 85.761719 109 C 90.398438 109.160156 95 109.960938 99.398438 111.359375 C 103.761719 112.761719 108.121094 114.679688 111.519531 117.800781 C 107.28125 116.121094 102.960938 115.199219 98.640625 114.398438 C 94.320312 113.640625 89.960938 113.078125 85.601562 113 C 76.960938 112.71875 68.320312 113.878906 60.601562 118.839844 Z M 60.601562 118.839844 "/>
<path style=" stroke:none;fill-rule:nonzero;fill:rgb(12.941176%,12.941176%,12.941176%);fill-opacity:1;" d="M 53.519531 144.238281 C 58.359375 134.921875 67.121094 127.398438 77.441406 123.960938 C 82.601562 122.28125 88.121094 121.601562 93.480469 122.199219 C 98.839844 122.71875 104 124.519531 108.519531 127.199219 C 98.320312 124.679688 88.121094 124.519531 78.679688 127.71875 C 69.238281 130.839844 60.921875 136.839844 53.519531 144.238281 Z M 53.519531 144.238281 "/>
<path style=" stroke:none;fill-rule:nonzero;fill:rgb(12.941176%,12.941176%,12.941176%);fill-opacity:1;" d="M 67.480469 156.398438 C 68.320312 152.558594 70.199219 148.960938 72.558594 145.71875 C 74.960938 142.480469 78 139.761719 81.480469 137.601562 C 83.199219 136.519531 85.121094 135.761719 86.960938 134.960938 C 88.921875 134.441406 90.839844 133.761719 92.878906 133.640625 C 96.878906 133.039062 100.921875 133.601562 104.679688 134.679688 C 100.761719 135.238281 97.039062 135.601562 93.519531 136.679688 C 89.960938 137.640625 86.640625 139.078125 83.558594 141 C 77.28125 144.761719 72.160156 150.160156 67.480469 156.398438 Z M 67.480469 156.398438 "/>
<path style=" stroke:none;fill-rule:nonzero;fill:rgb(12.941176%,12.941176%,12.941176%);fill-opacity:1;" d="M 237.558594 158.71875 C 232.71875 150.921875 225.398438 146.199219 217.480469 142.679688 C 213.519531 140.878906 209.359375 139.558594 205.121094 138.359375 C 200.839844 137.238281 196.558594 136.238281 192.039062 135.921875 C 196.441406 134.558594 201.199219 134.679688 205.761719 135.28125 C 210.320312 135.878906 214.839844 137.160156 219.121094 139 C 223.359375 140.921875 227.441406 143.398438 230.761719 146.71875 C 234.039062 150 236.679688 154.199219 237.558594 158.71875 Z M 237.558594 158.71875 "/>
<path style=" stroke:none;fill-rule:nonzero;fill:rgb(12.941176%,12.941176%,12.941176%);fill-opacity:1;" d="M 232.320312 185.601562 C 229.398438 175.558594 225 166.320312 218.160156 159.039062 C 211.441406 151.679688 202.398438 146.921875 192.238281 144.238281 C 197.480469 144.039062 202.878906 144.960938 207.839844 147.078125 C 212.839844 149.121094 217.359375 152.359375 221.078125 156.320312 C 228.480469 164.320312 232.558594 175.078125 232.320312 185.601562 Z M 232.320312 185.601562 "/>
<path style=" stroke:none;fill-rule:nonzero;fill:rgb(12.941176%,12.941176%,12.941176%);fill-opacity:1;" d="M 213.28125 188.839844 C 211.71875 181.199219 209.398438 174.121094 205.320312 168.078125 C 203.34375 165.015625 200.929688 162.253906 198.160156 159.878906 C 195.441406 157.359375 192.238281 155.441406 188.921875 153.28125 C 192.761719 153.878906 196.679688 155.121094 200 157.398438 C 201.800781 158.359375 203.238281 159.839844 204.800781 161.160156 C 206.160156 162.679688 207.558594 164.160156 208.640625 165.921875 C 210.839844 169.320312 212.441406 173.121094 213.199219 177.078125 C 214 180.921875 214.160156 184.960938 213.28125 188.839844 Z M 213.28125 188.839844 "/>
<path style=" stroke:none;fill-rule:nonzero;fill:rgb(65.882353%,72.941176%,75.686275%);fill-opacity:1;" d="M 129 69.398438 C 128.359375 71.359375 128.480469 73.640625 129.640625 75.320312 C 131.078125 77.441406 133.921875 78.320312 136.441406 77.960938 C 142.199219 77.160156 151.039062 69.558594 145.199219 63.839844 C 139.839844 58.640625 131.039062 63.160156 129 69.398438 Z M 129 69.398438 "/>
<path style=" stroke:none;fill-rule:nonzero;fill:rgb(65.882353%,72.941176%,75.686275%);fill-opacity:1;" d="M 196.960938 84.71875 C 196.679688 86.761719 195.601562 88.761719 193.839844 89.800781 C 191.640625 91.078125 188.71875 90.679688 186.558594 89.28125 C 181.679688 86.121094 176.960938 75.398438 184.71875 72.761719 C 191.800781 70.359375 197.800781 78.199219 196.960938 84.71875 Z M 196.960938 84.71875 "/>
<path style=" stroke:none;fill-rule:nonzero;fill:url(#radial0);" d="M 394.679688 296.558594 C 376.398438 310.398438 314.441406 345.679688 243.921875 272.199219 C 216.679688 243.800781 192.160156 226.039062 146.679688 236.320312 C 91.761719 248.761719 80 281.359375 70.558594 307.640625 C 59.640625 338.160156 59.640625 356.238281 64.28125 377.71875 C 109.960938 464.601562 213.878906 482.519531 288.320312 459.960938 C 400.761719 425.878906 432.160156 330.878906 441.800781 274 C 445.039062 254.878906 447.960938 236.359375 454.160156 218.800781 C 454.679688 216.359375 455.398438 214 456.320312 211.71875 C 454.441406 213.761719 430.359375 269.519531 394.679688 296.558594 Z M 394.679688 296.558594 "/>
<path style=" stroke:none;fill-rule:nonzero;fill:rgb(47.058824%,56.470588%,61.176471%);fill-opacity:1;" d="M 444.601562 142.121094 C 431.761719 148.878906 421.199219 159.601562 415.679688 168.160156 C 396.679688 107.519531 366.238281 115.960938 362.800781 117.160156 C 358.921875 118.558594 356.601562 121.160156 355.761719 124.878906 C 359.761719 121.121094 373 116.800781 388.359375 133.519531 C 396.359375 143.199219 401.480469 160.039062 402.359375 172.160156 C 404.800781 204.441406 394.398438 225.480469 388.558594 234.558594 C 387.441406 236.28125 390.078125 238.761719 392.121094 237.238281 C 398.238281 232.679688 405.121094 222.078125 410.441406 206.039062 C 416.199219 188.71875 423.839844 161.878906 453.679688 148.078125 C 468.398438 141.28125 480.679688 141.078125 488.039062 143.519531 C 493.640625 145.398438 495.761719 149.558594 495.761719 149.558594 C 495.761719 145.238281 493.320312 140.761719 489.160156 138.359375 C 486.558594 136.839844 470.878906 128.199219 444.601562 142.121094 Z M 444.601562 142.121094 "/>
<path style=" stroke:none;fill-rule:nonzero;fill:rgb(79.215686%,84.705882%,86.666667%);fill-opacity:1;" d="M 232.320312 224.878906 C 243.960938 272.238281 227.601562 286.121094 227.28125 330.71875 C 227 366.160156 238.398438 402.039062 265.320312 393.878906 C 285.441406 387.800781 315.28125 309.71875 300.640625 270.359375 "/>
<path style=" stroke:none;fill-rule:nonzero;fill:rgb(44.705882%,55.686275%,61.176471%);fill-opacity:1;" d="M 238.398438 232.28125 C 246.121094 271.921875 229.921875 304.679688 233.558594 346.039062 C 236.398438 380.839844 250.960938 388.921875 257.398438 389.238281 C 264.359375 390.160156 269.800781 384.441406 273.960938 378.199219 C 278.71875 371.078125 284.558594 361.199219 289.601562 349 C 301.320312 319.601562 303 285 301.160156 272.71875 C 300.28125 268.921875 303.398438 268.558594 304.519531 272.039062 C 305.679688 275.640625 307.878906 285.839844 306.441406 311.199219 C 305.441406 325.078125 302.640625 338.839844 298.320312 352.121094 C 296.199219 358.761719 289.761719 376.640625 279.160156 390.238281 C 276.71875 393.160156 271.359375 401.921875 257 400.839844 C 252.679688 400.71875 226.679688 396.960938 222.359375 347.160156 C 221.839844 340.078125 220.800781 323.28125 224.679688 305.121094 C 227.078125 291.28125 231.441406 278.398438 233.160156 265.238281 C 234.839844 254.519531 233.640625 243.601562 233.28125 232.480469 C 233.121094 228.320312 237.398438 227.199219 238.398438 232.28125 Z M 238.398438 232.28125 "/>
<path style=" stroke:none;fill-rule:nonzero;fill:rgb(79.215686%,84.705882%,86.666667%);fill-opacity:1;" d="M 73.238281 261.078125 C 84.800781 304.71875 168.078125 318.078125 188.28125 389.601562 C 194.441406 411.441406 178.800781 419.519531 164.71875 419.519531 C 87.921875 419.519531 48.878906 356.320312 48.878906 356.320312 "/>
<path style=" stroke:none;fill-rule:nonzero;fill:rgb(44.705882%,55.686275%,61.176471%);fill-opacity:1;" d="M 76.679688 268.320312 C 83.800781 278.121094 92.640625 286.441406 102.480469 293.320312 C 114.601562 301.800781 127.558594 309.359375 139.878906 318.238281 C 152.320312 326.960938 164.078125 337.160156 173.921875 349.398438 C 194.761719 379.761719 196.398438 398.71875 194.71875 405.441406 C 193.535156 410.273438 190.863281 414.609375 187.078125 417.839844 C 180.441406 423.121094 170.039062 425.601562 162.078125 425.078125 C 146.519531 424.558594 130.960938 421.441406 116.640625 415.558594 C 102.238281 409.800781 89.078125 401.359375 77.601562 391.320312 C 69.601562 384.160156 63.558594 377.71875 57.839844 368.71875 C 54.761719 363.839844 53 358.121094 57.320312 363 C 83.960938 393.320312 106.199219 402.199219 119.878906 406.839844 C 133.601562 411.320312 147.878906 414 162.28125 413.800781 C 164.160156 413.800781 174.761719 413.199219 179.480469 409.039062 C 183.441406 405.640625 184.519531 400.238281 183.238281 393.960938 C 179.320312 377.398438 167.679688 349.761719 131.28125 323.398438 C 116.320312 312.601562 80 288 73.238281 269.359375 C 71.679688 265.039062 74.761719 265.640625 76.679688 268.320312 Z M 76.679688 268.320312 "/>
</g>
</svg>
